# xmcd CD database file
#
# Track frame offsets:
#	180
#	13977
#	27485
#	36374
#	49345
#	60976
#	74701
#	84418
#	95989
#	106485
#	120725
#	134881
#	146727
#	156370
#
# Disc length: 2226 seconds
#
# Revision: 0
# Processed by: cddbd v1.4PL0 Copyright (c) Steve Scherf et al.
# Submitted via: CDex 1.50
#
DISCID=dd08b00e
DTITLE=Lalo "El Gallo" Elizalde - (1994) - ESTA ES MI VIDA (Con Los Tamazulas de Culiacan
DYEAR=1994
DGENRE=Banda Sinaloense
TTITLE0=esta es mi vida
TTITLE1=mil noches
TTITLE2=la pecosita
TTITLE3=ingrato dolor
TTITLE4=mi unico camino
TTITLE5=la fe perdida
TTITLE6=volo la paloma
TTITLE7=ingrata mujer
TTITLE8=balance
TTITLE9=ya supe todo
TTITLE10=el adios
TTITLE11=la nube gris
TTITLE12=la barca de guaymas
TTITLE13=como buenos amigos
EXTD=YEAR: 1994
EXTT0=
EXTT1=
EXTT2=
EXTT3=
EXTT4=
EXTT5=
EXTT6=
EXTT7=
EXTT8=
EXTT9=
EXTT10=
EXTT11=
EXTT12=
EXTT13=
PLAYORDER=
